<svg width="79" height="99" viewBox="0 0 79 99" fill="none" xmlns="http://www.w3.org/2000/svg">
<path d="M-2.03221e-05 69.058V69.058C-2.03221e-05 72.8235 1.94992 76.3205 5.15329 78.2999L35.7102 97.1808C36.7515 97.8242 38.0947 97.0751 38.0947 95.8511V95.8511C38.0947 95.4389 37.8916 95.0532 37.5517 94.8201L-2.03221e-05 69.058Z" fill="white"/>
<path d="M-1.75238e-05 59.0192V65.423L38.0947 87.5769V85.1538L-1.75238e-05 59.0192Z" fill="white"/>
<path d="M-1.75238e-05 49.327V55.7309L38.0947 77.8847V75.4616L-1.75238e-05 49.327Z" fill="white"/>
<path d="M-1.75238e-05 39.1152V45.5191L38.0947 67.6729V65.2498L-1.75238e-05 39.1152Z" fill="white"/>
<path d="M6.14622 29.8699C3.48326 28.1766 -0.000119016 30.0895 -0.000119016 33.2453V35.4808L38.271 57.4615V57.4615C38.271 53.0152 35.9986 48.8524 32.2466 46.4665L6.14622 29.8699Z" fill="white"/>
<path d="M79 69.4041V69.4041C79 73.1696 77.0501 76.6666 73.8467 78.6459L43.2898 97.5268C42.2485 98.1702 40.9053 97.4212 40.9053 96.1972V96.1972C40.9053 95.785 41.1084 95.3993 41.4483 95.1661L79 69.4041Z" fill="white"/>
<path d="M79 59.3652V65.7691L40.9053 87.9229V85.4998L79 59.3652Z" fill="white"/>
<path d="M79 49.6731V56.0769L40.9053 78.2308V75.8077L79 49.6731Z" fill="white"/>
<path d="M79 39.4613V45.8651L40.9053 68.019V65.5959L79 39.4613Z" fill="white"/>
<path d="M72.8538 30.2158C75.5167 28.5225 79.0001 30.4355 79.0001 33.5912V35.8267L40.729 57.8075V57.8075C40.729 53.3612 43.0014 49.1983 46.7534 46.8125L72.8538 30.2158Z" fill="white"/>
<path d="M37.5802 1.12406C38.7022 0.434371 40.1164 0.432916 41.2398 1.12029L74.0868 21.2183C76.3259 22.5884 76.3159 25.8442 74.0684 27.2005L41.2213 47.0217C40.107 47.6941 38.7115 47.6927 37.5986 47.018L4.90283 27.1968C2.6635 25.8392 2.65349 22.5935 4.8844 21.2221L37.5802 1.12406Z" fill="white"/>
</svg>
