<svg width="428" height="526" viewBox="0 0 428 526" fill="none" xmlns="http://www.w3.org/2000/svg">
<path d="M25.7789 359.455C25.3034 380.854 26.7299 387.512 42.8966 398.449L196.955 496.41C202.07 499.569 207.892 495.286 207.892 489.277C207.892 487.254 207.184 485.191 205.514 484.046L25.7789 359.455Z" fill="#DDB433"/>
<path d="M25.7789 311.426V341.86L207.416 449.332V437.443L25.7789 311.426Z" fill="#DDB433"/>
<path d="M25.7789 263.396V293.831L207.416 400.827V388.939L25.7789 263.396Z" fill="#DDB433"/>
<path d="M25.7789 215.367V245.326L207.416 352.798V340.909L25.7789 215.367Z" fill="#DDB433"/>
<path d="M51.6859 168.532C38.6171 160.009 25.7789 150.694 25.7789 166.387V197.297L207.416 303.817C207.416 281.99 210.153 270.633 191.725 258.92L51.6859 168.532Z" fill="#DDB433"/>
<path d="M403.245 359.534C403.721 380.933 402.294 387.591 386.127 398.528L232.069 496.489C226.954 499.648 221.132 495.365 221.132 489.356C221.132 487.333 221.84 485.27 223.51 484.125L403.245 359.534Z" fill="#4F4F56"/>
<path d="M403.245 311.505V341.939L221.608 449.411V437.523L403.245 311.505Z" fill="#4F4F56"/>
<path d="M403.245 263.476V293.91L221.608 400.906V389.018L403.245 263.476Z" fill="#4F4F56"/>
<path d="M403.245 215.446V245.405L221.608 352.877V340.988L403.245 215.446Z" fill="#4F4F56"/>
<path d="M377.338 168.611C390.407 160.088 403.245 150.773 403.245 166.466V197.376L221.608 303.896C221.608 282.069 218.871 270.712 237.299 259L377.338 168.611Z" fill="#4F4F56"/>
<path d="M205.441 29.9863C210.736 26.7009 216.782 26.712 222.083 29.9863L381.373 131.751C391.94 138.278 391.979 143.361 381.373 149.822L223.985 249.209C218.727 252.412 208.791 252.423 203.539 249.209L47.1029 148.699C36.5348 142.231 36.5745 137.636 47.1029 131.104L205.441 29.9863Z" fill="#BBB4B4"/>
</svg>
